#N canvas 203 195 848 714 10;
#X obj 181 46 inlet;
#X obj 179 279 -;
#X floatatom 177 332 5 0 0 0 - - -;
#X obj 56 377 spigot;
#X obj 288 396 spigot;
#X obj 321 370 > 0;
#X obj 88 350 < 0;
#X floatatom 56 426 5 0 0 0 - - -;
#X floatatom 297 437 5 0 0 0 - - -;
#X obj 56 465 outlet;
#X obj 166 469 outlet;
#X obj 297 469 outlet;
#X obj 180 100 sig~;
#X obj 177 145 snapshot~;
#X obj 107 64 loadbang;
#X obj 107 100 metro 1;
#X floatatom 177 184 5 0 0 0 - - -;
#X obj 201 246 pipe 10;
#X connect 0 0 12 0;
#X connect 1 0 2 0;
#X connect 2 0 5 0;
#X connect 2 0 6 0;
#X connect 2 0 10 0;
#X connect 3 0 7 0;
#X connect 4 0 8 0;
#X connect 5 0 4 1;
#X connect 6 0 3 1;
#X connect 7 0 9 0;
#X connect 8 0 11 0;
#X connect 12 0 13 0;
#X connect 13 0 16 0;
#X connect 14 0 15 0;
#X connect 15 0 13 0;
#X connect 16 0 1 0;
#X connect 16 0 3 0;
#X connect 16 0 4 0;
#X connect 16 0 17 0;
#X connect 17 0 1 1;
