#N canvas 175 67 1461 905 10;
#X obj 107 791 outlet~;
#X obj 85 37 inlet pressure;
#X obj 563 37 inlet drag;
#X floatatom 265 690 5 0 0 0 - - -;
#X floatatom 62 105 5 0 0 0 - - -;
#X obj 131 602 line;
#X text 19 105 target;
#X text 107 99 current;
#X floatatom 160 100 5 0 0 0 - - -;
#X obj 180 157 -;
#X floatatom 183 192 5 0 0 0 - - -;
#X text 225 192 Change;
#X obj 115 137 change;
#X obj 72 323 pack f f;
#X obj 199 273 abs;
#X obj 107 757 lop~ 10;
#X obj 200 221 moses 0;
#X floatatom 199 253 5 0 0 0 - - -;
#X floatatom 239 252 5 0 0 0 - - -;
#X obj 199 319 * 1;
#X obj 240 320 * 1;
#X floatatom 509 54 5 0 0 0 - - -;
#X obj 525 252 * -1;
#X obj 525 280 + 54;
#X floatatom 30 272 5 0 0 0 - - -;
#X obj 591 143 -;
#X floatatom 397 190 5 0 0 0 - - -;
#X obj 393 227 abs;
#X floatatom 202 375 5 0 0 0 - - -;
#X floatatom 256 374 10 0 0 0 - - -;
#X obj 525 302 * 20;
#X obj 360 49 metro 10;
#X obj 333 22 loadbang;
#X obj 638 113 pipe 10;
#X obj 388 265 pow 4;
#X obj 29 211 pipe 50;
#X obj 48 393 print;
#X obj 611 232 changeRange;
#X floatatom 680 282 5 0 0 0 - - -;
#X floatatom 585 281 5 0 0 0 - - -;
#X floatatom 634 285 5 0 0 0 - - -;
#X obj 568 429 abs;
#X obj 506 84 pipe 10;
#X obj 616 466 change;
#X obj 612 504 t b;
#X obj 553 706 pack 0 f;
#X obj 483 492 * 15;
#X obj 622 429 >= 20;
#X obj 575 578 delay 25;
#X obj 498 536 pack 0.75 25;
#X obj 683 429 <= -20;
#X obj 693 468 change;
#X obj 691 505 t b;
#X obj 676 714 pack 0 f;
#X obj 749 578 bng 15 250 50 0 empty empty empty 17 7 0 10 -262144
-1 -1;
#X obj 785 521 pack 0.8 15;
#X obj 901 427 * 15;
#X obj 673 579 delay 100;
#X obj 777 442 * 10;
#X connect 1 0 4 0;
#X connect 2 0 21 0;
#X connect 2 0 37 0;
#X connect 4 0 12 0;
#X connect 4 0 35 0;
#X connect 5 0 3 0;
#X connect 5 0 8 0;
#X connect 5 0 15 0;
#X connect 8 0 9 1;
#X connect 9 0 10 0;
#X connect 10 0 16 0;
#X connect 12 0 9 0;
#X connect 12 0 13 0;
#X connect 13 0 5 0;
#X connect 13 0 36 0;
#X connect 14 0 19 0;
#X connect 15 0 0 0;
#X connect 16 0 17 0;
#X connect 16 1 18 0;
#X connect 17 0 14 0;
#X connect 18 0 20 0;
#X connect 19 0 13 1;
#X connect 19 0 28 0;
#X connect 20 0 13 1;
#X connect 20 0 29 0;
#X connect 21 0 42 0;
#X connect 22 0 23 0;
#X connect 23 0 30 0;
#X connect 25 0 26 0;
#X connect 26 0 27 0;
#X connect 27 0 34 0;
#X connect 27 0 34 1;
#X connect 30 0 19 1;
#X connect 32 0 31 0;
#X connect 33 0 25 1;
#X connect 34 0 20 1;
#X connect 35 0 24 0;
#X connect 37 0 39 0;
#X connect 37 1 40 0;
#X connect 37 2 38 0;
#X connect 38 0 58 0;
#X connect 38 0 56 0;
#X connect 39 0 41 0;
#X connect 40 0 47 0;
#X connect 40 0 50 0;
#X connect 41 0 46 0;
#X connect 42 0 22 0;
#X connect 42 0 25 0;
#X connect 42 0 33 0;
#X connect 43 0 44 0;
#X connect 44 0 48 0;
#X connect 44 0 49 0;
#X connect 45 0 5 0;
#X connect 46 0 45 1;
#X connect 47 0 43 0;
#X connect 48 0 45 0;
#X connect 49 0 5 0;
#X connect 50 0 51 0;
#X connect 51 0 52 0;
#X connect 52 0 54 0;
#X connect 52 0 55 0;
#X connect 52 0 57 0;
#X connect 53 0 5 0;
#X connect 55 0 5 0;
#X connect 56 0 53 1;
#X connect 57 0 53 0;
#X connect 58 0 57 1;
