#N canvas 23 70 1854 974 10;
#X msg 19 115 2;
#X msg 264 117 3;
#X msg 506 116 4;
#X msg 17 270 5;
#X msg 238 269 6;
#X msg 489 269 7;
#X obj 334 83 loadbang;
#X obj 19 147 strisoTone, f 27;
#X obj 261 147 strisoTone, f 27;
#X obj 505 148 strisoTone, f 27;
#X obj 60 344 strisoTone, f 27;
#X obj 281 344 strisoTone, f 27;
#X obj 532 344 strisoTone, f 27;
#N canvas 25 50 1836 961 strisoPlay 1;
#X obj 530 10 inlet~ w1;
#X obj 593 9 inlet~ w2;
#X obj 659 10 inlet~ w3;
#X obj 725 10 inlet~ w4;
#X obj 792 11 inlet~ w5;
#X obj 859 9 inlet~ w6;
#X obj 64 809 throw~ outL;
#X obj 151 808 throw~ outR;
#X obj 24 13 inlet~ a1;
#X obj 95 12 inlet~ a2;
#X obj 167 13 inlet~ a3;
#X obj 239 13 inlet~ a4;
#X obj 308 14 inlet~ a5;
#X obj 379 13 inlet~ a6;
#X obj 24 532 /~;
#X obj 59 532 /~;
#X obj 100 532 /~;
#X obj 136 532 /~;
#X obj 172 531 /~;
#X obj 210 530 /~;
#X obj 29 768 dac~;
#X obj 450 10 inlet~ a7;
#X obj 940 10 inlet~ w7;
#X obj 50 325 expr~ $v1 + $v2 + $v3 + $v4 + $v5 + $v6 + $v7, f 60
;
#X obj 251 530 /~;
#X obj 24 586 expr~ ($v1 * $v8) + ($v2 * $v9) + ($v3 * $v10) + ($v4
* $v11) + ($v5 * $v12) + ($v6 * $v13) + ($v7 * $v14), f 123;
#N canvas 0 50 450 250 (subpatch) 0;
#X array waveA 128 float 1;
#A 0 0 0 0 0 0 0 0 0 0 0 0 0 0 0 0 0 0 0 0 0 0 0 0 0 0 0 0 0 0 0 0
0 0 0 0 0 0 0 0 0 0 0 0 0 0 0 0 0 0 0 0 0 0 0 0 0 0 0 0 0 0 0 0 0 0
0 0 0 0 0 0 0 0 0 0 0 0 0 0 0 0 0 0 0 0 0 0 0 0 0 0 0 0 0 0 0 0 0 0
0 0 0 0 0 0 0 0 0 0 0 0 0 0 0 0 0 0 0 0 0 0 0 0 0 0 0 0 0;
#X coords 0 1 127 -1 200 140 1;
#X restore 594 670 graph;
#X obj 334 723 tabwrite~ waveA;
#X obj 359 672 metro 128;
#X obj 362 624 tgl 15 0 empty empty empty 17 7 0 10 -262144 -1 -1 0
1;
#X connect 0 0 25 7;
#X connect 1 0 25 8;
#X connect 2 0 25 9;
#X connect 3 0 25 10;
#X connect 4 0 25 11;
#X connect 5 0 25 12;
#X connect 8 0 14 0;
#X connect 8 0 23 0;
#X connect 9 0 15 0;
#X connect 9 0 23 1;
#X connect 10 0 16 0;
#X connect 10 0 23 2;
#X connect 11 0 17 0;
#X connect 11 0 23 3;
#X connect 12 0 18 0;
#X connect 12 0 23 4;
#X connect 13 0 19 0;
#X connect 13 0 23 5;
#X connect 14 0 25 0;
#X connect 15 0 25 1;
#X connect 16 0 25 2;
#X connect 17 0 25 3;
#X connect 18 0 25 4;
#X connect 19 0 25 5;
#X connect 21 0 23 6;
#X connect 21 0 24 0;
#X connect 22 0 25 13;
#X connect 23 0 14 1;
#X connect 23 0 15 1;
#X connect 23 0 16 1;
#X connect 23 0 17 1;
#X connect 23 0 18 1;
#X connect 23 0 19 1;
#X connect 23 0 24 1;
#X connect 24 0 25 6;
#X connect 25 0 27 0;
#X connect 25 0 6 0;
#X connect 25 0 7 0;
#X connect 28 0 27 0;
#X connect 29 0 28 0;
#X restore 210 735 pd strisoPlay;
#X f 195;
#N canvas 100 291 782 595 selectWaveType 1;
#X obj 57 50 loadbang;
#X obj 234 44 r enc;
#X floatatom 234 101 5 0 0 0 - - -;
#X obj 92 80 s enableSubMenu;
#X obj 307 88 s goHome;
#X obj 311 42 r encbut;
#X obj 244 150 select 0 1;
#X obj 310 231 float;
#X obj 178 148 loadbang;
#X obj 218 230 float;
#X obj 362 232 + 1;
#X obj 274 229 - 1;
#X floatatom 217 293 5 0 0 0 - - -;
#X floatatom 319 295 5 0 0 0 - - -;
#X obj 266 372 +;
#X obj 215 319 t b f;
#X obj 317 321 t b f;
#X floatatom 266 420 5 0 0 0 - - -;
#X obj 332 417 mod 4;
#X obj 267 464 s waveC;
#X obj 106 187 f 0;
#X obj 139 359 loadbang;
#X obj 159 380 f 3;
#X connect 0 0 3 0;
#X connect 1 0 2 0;
#X connect 2 0 6 0;
#X connect 5 0 4 0;
#X connect 6 0 9 0;
#X connect 6 1 7 0;
#X connect 7 0 10 0;
#X connect 7 0 13 0;
#X connect 8 0 20 0;
#X connect 9 0 11 0;
#X connect 9 0 12 0;
#X connect 10 0 7 1;
#X connect 11 0 9 1;
#X connect 12 0 15 0;
#X connect 13 0 16 0;
#X connect 14 0 17 0;
#X connect 15 1 14 0;
#X connect 16 0 14 0;
#X connect 16 1 14 1;
#X connect 17 0 18 0;
#X connect 17 0 19 0;
#X connect 18 0 17 0;
#X connect 20 0 9 0;
#X connect 20 0 7 0;
#X connect 21 0 22 0;
#X connect 22 0 17 0;
#X restore 120 39 pd selectWaveType;
#N canvas 647 378 450 300 waveBend 1;
#X obj 107 128 hsl 128 15 0.001 0.999 0 0 empty empty empty -2 -8 0
10 -262144 -1 -1 3423 1;
#X obj 45 205 s bendPoint;
#X obj 124 22 loadbang;
#X obj 56 53 r knob1;
#X obj 104 91 clip 0.001 0.999;
#X msg 162 172 Pulse Width \$1;
#X obj 166 215 s screenLine2;
#X obj 185 49 f 0.27;
#X connect 0 0 1 0;
#X connect 0 0 5 0;
#X connect 2 0 7 0;
#X connect 4 0 0 0;
#X connect 7 0 4 0;
#X coords 0 -1 1 1 150 20 1 100 125;
#X restore 500 31 pd waveBend;
#N canvas 1347 321 450 300 selectPhase 0;
#X obj 45 42 r knob2;
#X obj 141 42 loadbang;
#X msg 141 168 Phase \$1;
#X obj 141 207 s screenLine3;
#X obj 32 161 s phase;
#X obj 144 80 f 0.5;
#X connect 1 0 5 0;
#X connect 2 0 3 0;
#X connect 5 0 4 0;
#X restore 759 42 pd selectPhase;
#N canvas 4 50 1857 972 setNobs 1;
#X obj 141 42 loadbang;
#X obj 31 39 r knob1;
#X obj 144 80 f 0.1;
#X obj 32 161 s attackK;
#X msg 141 168 Attack \$1;
#X obj 141 207 s screenLine1;
#X obj 358 49 loadbang;
#X obj 361 87 f 0.1;
#X obj 248 46 r knob2;
#X obj 249 168 s decayK;
#X msg 358 175 Decay \$1;
#X obj 358 214 s screenLine2;
#X obj 567 52 loadbang;
#X obj 570 90 f 0.1;
#X obj 457 49 r knob3;
#X obj 567 217 s screenLine3;
#X msg 567 178 Release \$1;
#X obj 458 171 s releaseK;
#X obj 763 57 loadbang;
#X obj 766 95 f 0.1;
#X obj 653 54 r knob4;
#X obj 654 176 s quickK;
#X msg 763 183 Quick \$1;
#X obj 763 222 s screenLine4;
#X connect 0 0 2 0;
#X connect 1 0 4 0;
#X connect 1 0 3 0;
#X connect 2 0 4 0;
#X connect 2 0 3 0;
#X connect 4 0 5 0;
#X connect 6 0 7 0;
#X connect 7 0 10 0;
#X connect 7 0 9 0;
#X connect 8 0 10 0;
#X connect 8 0 9 0;
#X connect 10 0 11 0;
#X connect 12 0 13 0;
#X connect 13 0 16 0;
#X connect 13 0 17 0;
#X connect 14 0 16 0;
#X connect 14 0 17 0;
#X connect 16 0 15 0;
#X connect 18 0 19 0;
#X connect 19 0 22 0;
#X connect 19 0 21 0;
#X connect 20 0 22 0;
#X connect 20 0 21 0;
#X connect 22 0 23 0;
#X restore 908 40 pd setNobs;
#X connect 0 0 7 0;
#X connect 1 0 8 0;
#X connect 2 0 9 0;
#X connect 3 0 10 0;
#X connect 4 0 11 0;
#X connect 5 0 12 0;
#X connect 6 0 0 0;
#X connect 6 0 1 0;
#X connect 6 0 2 0;
#X connect 6 0 3 0;
#X connect 6 0 4 0;
#X connect 6 0 5 0;
#X connect 7 0 13 0;
#X connect 7 1 13 7;
#X connect 8 0 13 1;
#X connect 8 1 13 8;
#X connect 9 0 13 2;
#X connect 9 1 13 9;
#X connect 10 0 13 3;
#X connect 10 1 13 10;
#X connect 11 0 13 4;
#X connect 11 1 13 11;
#X connect 12 0 13 5;
#X connect 12 1 13 12;
