#N canvas 296 104 1380 833 10;
#X obj 184 411 outlet~ wave;
#X obj 32 20 inlet channel;
#X obj 32 69 strisoNote;
#X obj 172 68 strisoRot;
#X obj 323 66 strisoAccel;
#X obj 70 410 outlet~ amp;
#X obj 182 344 *~;
#X obj 41 210 / 127;
#X obj 111 128 / 171;
#X obj 149 221 +;
#X obj 137 99 t b f;
#X obj 171 265 WaveGen~;
#X obj 252 194 r waveC;
#X obj 75 338 fvol~;
#X obj 391 454 print;
#X msg 396 395 Position \$1;
#X msg 407 312 Push \$1;
#X floatatom 72 157 5 0 0 0 - - -;
#X obj 500 172 min 40;
#X obj 546 244 max -40;
#X obj 89 191 / 40;
#X connect 1 0 2 0;
#X connect 2 0 8 0;
#X connect 2 1 17 0;
#X connect 2 2 7 0;
#X connect 2 3 10 0;
#X connect 6 0 0 0;
#X connect 7 0 15 0;
#X connect 8 0 9 0;
#X connect 9 0 11 0;
#X connect 10 0 9 0;
#X connect 10 1 9 1;
#X connect 11 0 6 0;
#X connect 12 0 11 1;
#X connect 13 1 6 1;
#X connect 13 1 5 0;
#X connect 15 0 13 0;
#X connect 15 0 14 0;
#X connect 16 0 13 0;
#X connect 17 0 18 0;
#X connect 18 0 19 0;
#X connect 19 0 20 0;
#X connect 20 0 16 0;
