#N canvas 157 584 786 474 10;
#X text 10 80 x;
#X text 90 80 y;
#X text 170 80 z;
#X text 240 80 abs;
#X obj 30 50 ctlin 16 1;
#X floatatom 30 80 5 0 0 0 - - -;
#X floatatom 110 80 5 0 0 0 - - -;
#X floatatom 190 80 5 0 0 0 - - -;
#X floatatom 270 80 5 0 0 0 - - -;
#X obj 110 50 ctlin 17 1;
#X obj 190 50 ctlin 18 1;
#X obj 270 50 ctlin 19 1;
#X obj 31 100 outlet x;
#X obj 110 98 outlet y;
#X obj 190 98 outlet z;
#X obj 270 98 outlet abs;
#X text 130 20 Accelleration;
#X connect 4 0 5 0;
#X connect 5 0 12 0;
#X connect 6 0 13 0;
#X connect 7 0 14 0;
#X connect 8 0 15 0;
#X connect 9 0 6 0;
#X connect 10 0 7 0;
#X connect 11 0 8 0;
