#N canvas -8 -8 1920 992 10;
#X obj 208 17 inlet channel;
#X obj 140 90 ctlin 74;
#X obj 27 94 bendin;
#X obj 278 91 touchin;
#X obj 403 91 notein;
#X obj 402 129 pack;
#X obj 402 150 list prepend;
#X obj 402 177 route;
#X obj 141 135 list prepend;
#X obj 141 178 route;
#X obj 28 140 list prepend;
#X obj 28 177 route;
#X obj 264 139 list prepend;
#X obj 265 170 route;
#X obj 401 211 list split 1;
#X obj 141 198 - 64;
#X obj 141 221 outlet y;
#X text 139 247 -64 - 64;
#X obj 265 203 outlet z;
#X obj 28 229 outlet x;
#X obj 342 243 outlet note;
#X obj 437 244 outlet velocity;
#X obj 28 202 - 8192;
#X connect 0 0 11 1;
#X connect 0 0 9 1;
#X connect 0 0 13 1;
#X connect 0 0 7 1;
#X connect 1 0 8 0;
#X connect 1 1 8 1;
#X connect 2 0 10 0;
#X connect 2 1 10 1;
#X connect 3 0 12 0;
#X connect 3 1 12 1;
#X connect 4 0 5 0;
#X connect 4 1 5 1;
#X connect 4 2 6 1;
#X connect 5 0 6 0;
#X connect 6 0 7 0;
#X connect 7 0 14 0;
#X connect 8 0 9 0;
#X connect 9 0 15 0;
#X connect 10 0 11 0;
#X connect 11 0 22 0;
#X connect 12 0 13 0;
#X connect 13 0 18 0;
#X connect 14 0 20 0;
#X connect 14 1 21 0;
#X connect 15 0 16 0;
#X connect 22 0 19 0;
