#N canvas 18 265 316 180 10;
#X text 107 11 Rotation;
#X text 9 73 x;
#X text 89 73 y;
#X text 169 73 z;
#X floatatom 29 73 5 0 0 0 - - -;
#X floatatom 109 73 5 0 0 0 - - -;
#X floatatom 189 73 5 0 0 0 - - -;
#X obj 29 43 ctlin 80 1;
#X obj 109 43 ctlin 81 1;
#X obj 189 43 ctlin 82 1;
#X obj 29 93 outlet x;
#X obj 109 93 outlet y;
#X obj 189 93 outlet z;
#X connect 4 0 10 0;
#X connect 5 0 11 0;
#X connect 6 0 12 0;
#X connect 7 0 4 0;
#X connect 8 0 5 0;
#X connect 9 0 6 0;
