#N canvas 309 362 1380 833 10;
#X obj 189 502 outlet~ wave;
#X obj 32 20 inlet channel;
#X obj 32 69 strisoNote;
#X obj 172 68 strisoRot;
#X obj 323 66 strisoAccel;
#X obj 75 501 outlet~ amp;
#X obj 188 462 *~;
#X obj 46 301 / 127;
#X obj 111 128 / 171;
#X obj 154 312 +;
#X obj 137 99 t b f;
#X obj 176 356 WaveGen~;
#X obj 257 285 r waveC;
#X obj 79 435 fvol~;
#X obj 12 497 print;
#X floatatom 72 157 5 0 0 0 - - -;
#X obj 77 201 min 40;
#X obj 78 248 max -40;
#X obj 94 282 / 40;
#X msg 8 371 Amplitude \$1;
#X msg 128 384 Throttle \$1;
#X obj 364 286 r attackK;
#X msg 366 345 Attack \$1;
#X obj 451 285 r decayK;
#X msg 453 344 Decay \$1;
#X msg 553 347 Release \$1;
#X obj 551 288 r releaseK;
#X obj 659 285 r quickK;
#X msg 661 344 Quick \$1;
#X connect 1 0 2 0;
#X connect 2 0 8 0;
#X connect 2 1 15 0;
#X connect 2 2 7 0;
#X connect 2 3 10 0;
#X connect 6 0 0 0;
#X connect 7 0 19 0;
#X connect 8 0 9 0;
#X connect 9 0 11 0;
#X connect 10 0 9 0;
#X connect 10 1 9 1;
#X connect 11 0 6 0;
#X connect 12 0 11 1;
#X connect 13 1 6 1;
#X connect 13 1 5 0;
#X connect 15 0 16 0;
#X connect 16 0 17 0;
#X connect 17 0 18 0;
#X connect 18 0 20 0;
#X connect 19 0 13 0;
#X connect 19 0 14 0;
#X connect 20 0 13 0;
#X connect 21 0 22 0;
#X connect 22 0 13 0;
#X connect 23 0 24 0;
#X connect 24 0 13 0;
#X connect 25 0 13 0;
#X connect 26 0 25 0;
#X connect 27 0 28 0;
#X connect 28 0 13 0;
