#N canvas 691 169 1139 735 10;
#X obj 24 22 inlet amps;
#X obj 24 46 unpack f f f f f f;
#X obj 4 89 expr $f1 + $f2 + $f3 + $f4 + $f5 + $f6;
#X obj 13 167 /;
#X obj 13 197 *~;
#X obj 48 167 /;
#X obj 48 197 *~;
#X obj 89 167 /;
#X obj 89 197 *~;
#X obj 125 167 /;
#X obj 125 197 *~;
#X obj 161 166 /;
#X obj 161 196 *~;
#X obj 199 165 /;
#X obj 199 195 *~;
#X obj 97 22 inlet~ w1;
#X obj 160 21 inlet~ w2;
#X obj 226 22 inlet~ w3;
#X obj 292 22 inlet~ w4;
#X obj 359 23 inlet~ w5;
#X obj 426 21 inlet~ w6;
#X obj 25 230 +~;
#X obj 98 229 +~;
#X obj 175 228 +~;
#X obj 62 264 +~;
#X obj 120 293 +~;
#X obj 56 334 throw~ outL;
#X obj 143 333 throw~ outR;
#X floatatom 338 234 5 0 0 0 - - -;
#X connect 0 0 1 0;
#X connect 1 0 2 0;
#X connect 1 0 3 0;
#X connect 1 1 2 1;
#X connect 1 1 5 0;
#X connect 1 2 2 2;
#X connect 1 2 7 0;
#X connect 1 3 2 3;
#X connect 1 3 9 0;
#X connect 1 4 2 4;
#X connect 1 4 11 0;
#X connect 1 5 2 5;
#X connect 1 5 13 0;
#X connect 2 0 3 1;
#X connect 2 0 5 1;
#X connect 2 0 7 1;
#X connect 2 0 9 1;
#X connect 2 0 11 1;
#X connect 2 0 13 1;
#X connect 2 0 28 0;
#X connect 3 0 4 0;
#X connect 4 0 21 0;
#X connect 5 0 6 0;
#X connect 6 0 21 1;
#X connect 7 0 8 0;
#X connect 8 0 22 0;
#X connect 9 0 10 0;
#X connect 10 0 22 1;
#X connect 11 0 12 0;
#X connect 12 0 23 0;
#X connect 13 0 14 0;
#X connect 14 0 23 1;
#X connect 15 0 4 1;
#X connect 16 0 6 1;
#X connect 17 0 8 1;
#X connect 18 0 10 1;
#X connect 19 0 12 1;
#X connect 20 0 14 1;
#X connect 21 0 24 0;
#X connect 22 0 24 1;
#X connect 23 0 25 1;
#X connect 24 0 25 0;
#X connect 25 0 26 0;
#X connect 25 0 27 0;
