#N canvas 72 55 1844 989 12;
#X obj 200 55 inlet;
#X obj 290 780 outlet~;
#X obj 628 214 delay 0.01;
#X obj 686 97 r waveC;
#X obj 687 167 t b f;
#X obj 747 288 select 0 1 2 3;
#X obj 736 336 f 1;
#X obj 782 336 f 1;
#X obj 825 336 f 1;
#X obj 863 337 f 1;
#X obj 723 251 f;
#X obj 685 137 mod 4;
#X msg 796 431 Square;
#X msg 743 428 Sine;
#X msg 956 435 Triangle;
#X msg 875 435 Sawtooth;
#X obj 828 526 s screenLine1;
#X obj 152 274 phasor~;
#X obj 152 178 mtof;
#X obj 272 167 r knob1;
#X obj 268 197 * 3;
#X obj 269 234 + 1;
#X obj 276 308 *;
#X obj 276 273 t b f;
#X obj 276 403 phasor~;
#X obj 62 467 tgl 15 0 empty empty empty 17 7 0 10 -262144 -1 -1 1
1;
#X obj 275 443 *~ 2;
#X obj 282 494 -~ 1;
#X obj 157 381 f 0;
#X obj 48 343 threshold~ 0.9999 0 0.0001 0;
#X connect 0 0 18 0;
#X connect 2 0 10 0;
#X connect 3 0 11 0;
#X connect 4 0 2 0;
#X connect 4 1 10 1;
#X connect 5 0 6 0;
#X connect 5 1 7 0;
#X connect 5 2 8 0;
#X connect 5 3 9 0;
#X connect 6 0 13 0;
#X connect 7 0 12 0;
#X connect 8 0 15 0;
#X connect 9 0 14 0;
#X connect 10 0 5 0;
#X connect 11 0 4 0;
#X connect 12 0 16 0;
#X connect 13 0 16 0;
#X connect 14 0 16 0;
#X connect 15 0 16 0;
#X connect 17 0 29 0;
#X connect 18 0 17 0;
#X connect 18 0 22 0;
#X connect 19 0 20 0;
#X connect 20 0 21 0;
#X connect 21 0 23 0;
#X connect 22 0 24 0;
#X connect 23 0 22 0;
#X connect 23 1 22 1;
#X connect 24 0 26 0;
#X connect 26 0 27 0;
#X connect 27 0 1 0;
#X connect 28 0 24 1;
#X connect 29 0 25 0;
#X connect 29 0 28 0;
