#N canvas 72 55 1844 989 12;
#X obj 256 64 inlet;
#X obj 290 780 outlet~;
#X obj 628 214 delay 0.01;
#X obj 686 97 r waveC;
#X obj 687 167 t b f;
#X obj 747 288 select 0 1 2 3;
#X obj 736 336 f 1;
#X obj 782 336 f 1;
#X obj 825 336 f 1;
#X obj 863 337 f 1;
#X obj 723 251 f;
#X obj 685 137 mod 4;
#X msg 796 431 Square;
#X msg 743 428 Sine;
#X msg 956 435 Triangle;
#X msg 875 435 Sawtooth;
#X obj 828 526 s screenLine1;
#N canvas 344 363 813 501 WaveSplitter~ 1;
#X obj 197 243 WaveGen~;
#X obj 106 23 inlet;
#X obj 241 29 inlet;
#X obj 241 78 t b f;
#X obj 168 382 outlet~;
#X obj 187 188 mtof;
#X obj 62 193 mtof;
#X obj 63 157 + 0.03;
#X obj 115 190 mtof;
#X obj 116 154 - 0.03;
#X obj 114 239 WaveGen~;
#X obj 49 241 WaveGen~;
#X obj 301 195 mtof;
#X obj 354 192 mtof;
#X obj 353 241 WaveGen~;
#X obj 288 243 WaveGen~;
#X obj 302 159 + 0.07;
#X obj 355 156 - 0.07;
#X obj 185 317 /~ 5;
#X obj 229 151 + 1;
#X connect 0 0 18 0;
#X connect 1 0 5 0;
#X connect 1 0 9 0;
#X connect 1 0 7 0;
#X connect 1 0 16 0;
#X connect 1 0 17 0;
#X connect 2 0 3 0;
#X connect 3 0 5 0;
#X connect 3 0 9 0;
#X connect 3 0 7 0;
#X connect 3 0 16 0;
#X connect 3 0 17 0;
#X connect 3 1 0 1;
#X connect 3 1 15 1;
#X connect 3 1 14 1;
#X connect 3 1 19 0;
#X connect 5 0 0 0;
#X connect 6 0 11 0;
#X connect 7 0 6 0;
#X connect 8 0 10 0;
#X connect 9 0 8 0;
#X connect 10 0 18 0;
#X connect 11 0 18 0;
#X connect 12 0 15 0;
#X connect 13 0 14 0;
#X connect 14 0 18 0;
#X connect 15 0 18 0;
#X connect 16 0 12 0;
#X connect 17 0 13 0;
#X connect 18 0 4 0;
#X connect 19 0 11 1;
#X connect 19 0 10 1;
#X restore 260 367 pd WaveSplitter~;
#X connect 0 0 17 0;
#X connect 2 0 10 0;
#X connect 3 0 11 0;
#X connect 4 0 2 0;
#X connect 4 0 17 0;
#X connect 4 1 10 1;
#X connect 4 1 17 1;
#X connect 5 0 6 0;
#X connect 5 1 7 0;
#X connect 5 2 8 0;
#X connect 5 3 9 0;
#X connect 6 0 13 0;
#X connect 7 0 12 0;
#X connect 8 0 15 0;
#X connect 9 0 14 0;
#X connect 10 0 5 0;
#X connect 11 0 4 0;
#X connect 12 0 16 0;
#X connect 13 0 16 0;
#X connect 14 0 16 0;
#X connect 15 0 16 0;
#X connect 17 0 1 0;
