#N canvas 180 84 1102 901 10;
#X obj 256 64 inlet;
#X obj 290 780 outlet~;
#X obj 432 254 *~ 2;
#X obj 433 282 -~ 1;
#X obj 527 258 -~ 0.5;
#X obj 526 292 abs~;
#X obj 526 324 -~ 0.25;
#X obj 526 358 *~ 4;
#N canvas 944 261 835 538 bendPhasor 0;
#X obj 101 145 phasor~;
#X obj 64 275 expr~ if($v1 <= $v2 \, ($v1/$v2) * 0.5 \, 0.5 + ((($v1
- $v2)/(1 - $v2)) * 0.5)), f 78;
#X obj 522 154 sig~ 0.5;
#X obj 517 106 r bendPoint;
#X obj 168 355 outlet~;
#X obj 100 52 inlet;
#X connect 0 0 1 0;
#X connect 1 0 4 0;
#X connect 2 0 1 1;
#X connect 3 0 2 0;
#X connect 5 0 0 0;
#X restore 331 127 pd bendPhasor;
#X obj 259 223 expr~ if($v1 < 0.5 \, -1 \, 1);
#X obj 778 189 delay 0.01;
#X obj 526 433 *~;
#X obj 440 430 *~;
#X obj 239 432 *~;
#X obj 73 419 *~;
#X obj 687 167 t b f;
#X obj 290 310 f 0;
#X obj 747 288 select 0 1 2 3;
#X obj 95 381 sig~;
#X obj 736 336 f 1;
#X obj 261 400 sig~;
#X obj 782 336 f 1;
#X obj 455 393 sig~;
#X obj 825 336 f 1;
#X obj 547 397 sig~;
#X obj 863 337 f 1;
#X obj 723 251 f;
#X obj 63 223 expr~ sin(6.28318 * $v1);
#X obj 685 137 mod 4;
#X obj 678 57 inlet;
#X obj 275 89 mtof;
#X obj 761 451 s screenLine1;
#X msg 735 386 Sine;
#X msg 795 392 Square;
#X msg 888 388 Sawtooth;
#X msg 967 392 Triangle;
#X connect 0 0 30 0;
#X connect 2 0 3 0;
#X connect 3 0 12 0;
#X connect 4 0 5 0;
#X connect 5 0 6 0;
#X connect 6 0 7 0;
#X connect 7 0 11 0;
#X connect 8 0 2 0;
#X connect 8 0 4 0;
#X connect 8 0 9 0;
#X connect 8 0 27 0;
#X connect 9 0 13 0;
#X connect 10 0 26 0;
#X connect 11 0 1 0;
#X connect 12 0 1 0;
#X connect 13 0 1 0;
#X connect 14 0 1 0;
#X connect 15 0 16 0;
#X connect 15 0 10 0;
#X connect 15 1 26 1;
#X connect 16 0 18 0;
#X connect 16 0 20 0;
#X connect 16 0 22 0;
#X connect 16 0 24 0;
#X connect 17 0 19 0;
#X connect 17 1 21 0;
#X connect 17 2 23 0;
#X connect 17 3 25 0;
#X connect 18 0 14 1;
#X connect 19 0 18 0;
#X connect 19 0 32 0;
#X connect 20 0 13 1;
#X connect 21 0 20 0;
#X connect 21 0 33 0;
#X connect 22 0 12 1;
#X connect 23 0 22 0;
#X connect 23 0 34 0;
#X connect 24 0 11 1;
#X connect 25 0 24 0;
#X connect 25 0 35 0;
#X connect 26 0 17 0;
#X connect 27 0 14 0;
#X connect 28 0 15 0;
#X connect 29 0 28 0;
#X connect 30 0 8 0;
#X connect 32 0 31 0;
#X connect 33 0 31 0;
#X connect 34 0 31 0;
#X connect 35 0 31 0;
